<svg xmlns="http://www.w3.org/2000/svg" width="100" height="100" viewBox="-945 -210.002 100 99.999998">
  <defs/>
  <circle cx="-160" cy="-160.002" r="50" fill="#cac5c0" transform="translate(-735 -.0000011)"/>
  <path fill="#0d0f0f" d="M-891.506-120h-11.643v-1.238c0-7.396 2.328-16.659 6.98-27.808 7.035-16.799 13.52-29.673 19.453-38.624l.822-1.232h-27.256c-3.93 0-6.92.819-8.975 2.463-2.059 1.645-3.582 4.387-4.586 8.222h-4.52l4.926-21.782h2.881c1.734.914 4.742 1.371 9.041 1.371h35.609v6.165c-1.275 1.829-2.918 4.75-4.926 8.768-3.838 7.485-7.352 16.208-10.553 26.163-4.743 14.702-7.163 27.209-7.253 37.532z"/>
  <text x="-881.43091" y="-140.42271" font-family="sans-serif" font-size="40" font-weight="400" letter-spacing="0" style="line-height:1.25" word-spacing="0">
    <tspan x="-881.43091" y="-140.42271">+</tspan>
  </text>
</svg>
